<?xml version="1.0" encoding="utf-8"?>
<!-- Generator: Adobe Illustrator 19.0.0, SVG Export Plug-In . SVG Version: 6.00 Build 0)  -->
<svg version="1.1" id="Layer_1" xmlns="http://www.w3.org/2000/svg" xmlns:xlink="http://www.w3.org/1999/xlink" x="0px" y="0px"
	 viewBox="-223 25 512 512" style="enable-background:new -223 25 512 512;" xml:space="preserve">
<style type="text/css">
	.st0{fill:#666666;}
	.st1{fill:#FFD05B;}
	.st2{fill:#F9B54C;}
	.st3{fill:#2B3B4E;}
	.st4{fill:#FFFFFF;}
	.st5{fill:none;stroke:#324A5E;stroke-width:0.25;stroke-miterlimit:10;}
	.st6{fill:#E6E9EE;}
	.st7{fill:#ACB3BA;}
</style>
<g>
	<g>
		<path class="st0" d="M-37.8,105.3c0-34.4-18.7-64.3-46.6-80.3v74.2l-46,26.6l-46.1-26.7V25c-27.8,16-46.5,45.9-46.5,80.3
			c0,36,20.7,67.3,50.8,82.6v0.4v305c0,12.1,4.9,23,12.8,30.9c7.9,7.9,18.8,12.7,30.9,12.8c24.1,0,43.6-19.5,43.7-43.7L-85,185.9
			C-56.8,170.1-37.8,139.9-37.8,105.3z"/>
		<path class="st1" d="M249.3,219.1v36.7c22.3-0.9,39.7-8.7,39.7-18.4C289,227.7,271.4,220,249.3,219.1z"/>
		<path class="st2" d="M288.9,237.5c0,0.2,0,0.6,0,0.9l-0.1,0.9c-2,8.8-18.5,15.8-39.5,16.6h-29.5V249c11.3,0.4,21.2-0.4,29.5-1.7
			c21.3-3.4,33.2-10.7,38.1-14.6C288.4,234.2,288.9,235.8,288.9,237.5z"/>
		<path class="st1" d="M-128.1,219.1v36.7c-22.3-0.9-39.7-8.7-39.7-18.4C-167.9,227.7-150.3,220-128.1,219.1z"/>
		<path class="st2" d="M-167.7,237.5c0,0.2,0,0.6,0,0.9l0.1,0.9c2,8.8,18.5,15.8,39.5,16.6h29.5V249c-11.3,0.4-21.2-0.4-29.5-1.7
			c-21.3-3.4-33.2-10.7-38.1-14.6C-167.2,234.2-167.7,235.8-167.7,237.5z"/>
		<g>
			<path class="st3" d="M263.7,401.1h-44.2c-1.6,0-2.9,1.2-2.9,2.9v80.8c0,1.6,1.2,2.9,2.9,2.9h44.2c1.6,0,2.9-1.2,2.9-2.9V404
				C266.7,402.5,265.3,401.1,263.7,401.1z"/>
			<path class="st3" d="M-98.5,401.1h-44.1c-1.6,0-2.9,1.2-2.9,2.9v80.8c0,1.6,1.2,2.9,2.9,2.9h44.2c1.6,0,2.9-1.2,2.9-2.9V404
				C-95.5,402.5-96.9,401.1-98.5,401.1z"/>
		</g>
		<path class="st1" d="M270.3,418.8v-99.2c-3.1-2.5-14.3-23.8-14.3-23.8c-16.8-72.4-67.5-137.9-67.5-137.9
			c-24.1-4.1-87.8-5.5-120.5-6v-0.1c-2,0-4.5,0-7.5,0.1c-3,0-5.5-0.1-7.5-0.1v0.1c-32.6,0.5-96.3,1.9-120.5,6
			c0,0-50.5,65.5-67.5,137.9c0,0-11.2,21.2-14.3,23.8v99.2c0,0-7.5,37.5,49.3,39.3H53h15h152.9C277.8,456.3,270.3,418.8,270.3,418.8
			z"/>
		<g>
			<path class="st2" d="M181.3,394.5c0,0,27.3-19.2,58.1-11.2c0,0,6.5,12.7,8.3,26c2.1,15.1-9.1,28.8-24.1,30.1l-18.1,1.7
				L181.3,394.5z"/>
			<path class="st2" d="M-65.4,394.5l-24.1,46.7l-18.1-1.7c-4.1-0.4-8-1.7-11.3-3.7c-8.8-5.4-14.3-15.6-12.8-26.4
				c0.1-0.9,0.2-1.7,0.4-2.6c2.2-12.3,7.8-23.4,7.8-23.4C-92.7,375.3-65.4,394.5-65.4,394.5z"/>
			<polygon class="st2" points="181.3,458.1 144.8,387.7 -23.7,387.7 -60.2,458.1 			"/>
		</g>
		<path class="st4" d="M252.3,305.6c0,0-34.6,24.1-191.7,23.9c-157.1,0.2-191.7-23.9-191.7-23.9l-3.4,25.5
			c20.5,21.7,58.1,28.3,58.1,28.3l11.8-9.5c22.8,13.9,95.1,18.9,125.1,20.5c30-1.5,102.3-6.6,125.1-20.5l11.8,9.5
			c0,0,37.7-6.6,58.1-28.3L252.3,305.6z"/>
		<g>
			<path class="st2" d="M254,288.5l-13.4-6.2l-22.4,16.4l20.4-53.9C244.7,258.6,250,273.3,254,288.5z"/>
			<path class="st2" d="M-97.1,298.7l-22.4-16.4l-13.4,6.2c4-15.1,9.3-29.9,15.3-43.7L-97.1,298.7z"/>
		</g>
		<ellipse class="st5" cx="56.3" cy="348.6" rx="19.2" ry="8.8"/>
		<path class="st3" d="M172,324.4l-14.7,35.2c-31.2,6.8-75.1,9.8-96.8,10.8c-21.7-1.1-65.6-4.1-96.8-10.8L-51,324.4
			c27.5,3.1,63.9,5.2,111.4,5.1C108.1,329.7,144.5,327.4,172,324.4z"/>
		<ellipse class="st6" cx="60.6" cy="349.7" rx="24.3" ry="12.6"/>
		<g>
			<circle class="st7" cx="206.2" cy="339.1" r="13.8"/>
			<circle class="st7" cx="234.4" cy="328.9" r="9.1"/>
			<circle class="st7" cx="-85.1" cy="338.5" r="13.8"/>
			<circle class="st7" cx="-113.2" cy="328.4" r="9.1"/>
		</g>
		<g>
			<rect x="1.8" y="403.2" class="st4" width="117.5" height="41.3"/>
			<path class="st4" d="M229.4,247.1l-43.8-77.3c-0.7-1.2-2.1-2-3.6-2c-38,2.2-94.2,2.4-120,2.2c-25.8,0.1-82,0-120-2.2
				c-1.5-0.1-2.9,0.6-3.6,2l-43.8,77.3c-1.4,2.5,0.2,5.6,3.1,5.7c22.3,1.1,100.2,4.7,164.3,5c64.1-0.1,141.9-3.9,164.3-5
				C229,252.7,230.7,249.6,229.4,247.1z"/>
		</g>
	</g>
</g>
</svg>
