<?xml version="1.0" encoding="utf-8"?>
<!-- Generator: Adobe Illustrator 19.0.0, SVG Export Plug-In . SVG Version: 6.00 Build 0)  -->
<svg version="1.1" id="Layer_1" xmlns="http://www.w3.org/2000/svg" xmlns:xlink="http://www.w3.org/1999/xlink" x="0px" y="0px"
	 viewBox="-223 25 512 512" style="enable-background:new -223 25 512 512;" xml:space="preserve">
<style type="text/css">
	.st0{fill:#9B5A50;}
	.st1{fill:#EBC9A0;}
	.st2{fill:#7D4641;}
	.st3{fill:#DCB991;}
	.st4{fill:#AA6455;}
	.st5{fill:#915046;}
</style>
<g>
	<g>
		<path class="st0" d="M-197.1,252.7c82.3-3.3,130-30.4,149.4-44.4c6.4-4.6,15.2-4.2,21.3,0.8l9.9,8.1c3.4-2.2,8-1.8,11,1.2
			c2.5,2.5,3.2,6.3,2,9.4l5.8,4.8c8.2-0.3,16.9,0,26.3,1.1c7.9,0.9,15.5-3.5,18.5-10.9l10.1-25.2c1.4-3.6,0.4-7.7-2.6-10.1l-81-66.3
			c-6.1-5-14.9-5.4-21.3-0.8c-19.4,14-67.2,41-149.4,44.4c-9.4,0.4-16.9,8.2-16.9,17.6l0.1,86.1
			C-213.1,259.9-206.1,253.1-197.1,252.7z"/>
		<g>
			<path class="st1" d="M-214.1,341.7v-53.3l0,0v-17.3c-4.9,0-8.9,4-8.9,8.9v52.9C-223,337.7-219,341.7-214.1,341.7z"/>
			<path class="st1" d="M278.1,291.8c-19.8,5.1-65.5,14.6-130.3,14.6c-24.5,0-47.6-1.2-69.8-3.2c56.8,25.1,131.6,29.5,172.4,29.9
				c15-2.7,25.9-5.4,32.2-7.1c3.8-1,6.4-4.5,6.4-8.5v-17.1C289,294.6,283.6,290.4,278.1,291.8z"/>
		</g>
		<g>
			<path class="st2" d="M-29.5,163.3c-2.3,0-4.5-0.9-6.2-2.6c-3.4-3.4-3.4-9,0-12.5l17.7-17.7c3.4-3.4,9-3.4,12.5,0
				c3.5,3.4,3.4,9,0,12.5l-17.7,17.7C-25,162.4-27.3,163.3-29.5,163.3z"/>
			<path class="st2" d="M-5.8,182.1c-2.3,0-4.5-0.9-6.2-2.6c-3.4-3.4-3.4-9,0-12.5l17.7-17.7c3.4-3.4,9-3.4,12.5,0s3.4,9,0,12.5
				L0.4,179.5C-1.3,181.2-3.5,182.1-5.8,182.1z"/>
			<path class="st2" d="M17.9,200.8c-2.3,0-4.5-0.9-6.2-2.6c-3.4-3.4-3.4-9,0-12.5l17.6-17.6c3.4-3.4,9-3.4,12.5,0s3.4,9,0,12.5
				l-17.7,17.7C22.4,200,20.2,200.8,17.9,200.8z"/>
		</g>
		<path class="st3" d="M-214,306.4c-4.9,0-9,4-9,8.9v17.6c0,4.9,4,8.8,8.8,8.8H-73c4.9,0,8.8-4,8.8-8.8v-13.8
			C-109.5,312.5-157.5,306.9-214,306.4z"/>
		<path class="st4" d="M-47.8,208.4c6.4-4.6,15.2-4.2,21.3,0.8l9.9,8.1c3.4-2.2,8-1.8,11,1.2c2.5,2.5,3.2,6.3,2,9.4l10.3,8.4
			c3.5-2.5,8.3-2.2,11.4,0.9c2.7,2.7,3.3,6.6,1.8,9.9l10.1,8.3c3.5-2.8,8.6-2.6,11.8,0.6c2.8,2.8,3.3,7,1.6,10.4l11.1,9.1
			c3,2.4,4,6.5,2.6,10.1l-2.2,5.5c9.4,5.9,19.8,10.9,30.7,15.3h194.6v-34.8c0-14.6-11.7-26.4-26.3-26.5
			c-46.6-0.1-144.3-5.4-203.2-44.7H-99.4v34.3C-74.5,225.7-57.6,215.4-47.8,208.4z"/>
		<path class="st5" d="M-214.1,270.4c0-9.4,7.5-17.2,16.9-17.6c18.2-0.7,34.7-2.6,49.6-5.3c-9.7-27.4-35.8-47-66.6-47v79.4l0,0
			L-214.1,270.4z"/>
	</g>
	<g>
		<path class="st4" d="M50.7,303.7c58.9,39.3,156.6,44.6,203.2,44.7c14.6,0,26.3,11.9,26.3,26.5v34.8H-99.4v-106H50.7L50.7,303.7z"
			/>
		<path class="st0" d="M-26.5,224.6c-6.1-5-14.9-5.4-21.3-0.8c-19.4,14-67.2,41-149.4,44.4c-9.4,0.4-16.9,8.2-16.9,17.6l0.1,97.5
			h123.5c0,0,32.1-56.1,119.1-46.1c7.9,0.9,15.5-3.5,18.5-10.9l10.1-25.2c1.4-3.6,0.4-7.7-2.6-10.1L-26.5,224.6z"/>
		<path class="st5" d="M-143.6,374.4c0-39-31.6-70.6-70.6-70.6v79.4h70.6V374.4z"/>
		<path class="st1" d="M147.9,409.7C18,409.7-70.6,375.8-214,374.4c-4.9,0-9,4-9,8.9v52.8c0,4.9,4,8.8,8.8,8.8H-73
			c4.9,0,8.8-4,8.8-8.8v-13.7c69.7,10.1,133.3,22.5,211.9,22.5c70.3,0,118.2-11.2,134.8-15.8c3.8-1,6.4-4.5,6.4-8.5v-17.1
			c0-5.8-5.4-10-10.9-8.6C258.3,400.2,212.5,409.7,147.9,409.7z"/>
		<g>
			<path class="st2" d="M-29.5,266.6c-2.3,0-4.5-0.9-6.2-2.6c-3.4-3.4-3.4-9,0-12.5l17.7-17.7c3.4-3.4,9-3.4,12.5,0s3.4,9,0,12.5
				L-23.2,264C-25,265.7-27.3,266.6-29.5,266.6z"/>
			<path class="st2" d="M-5.8,285.3c-2.3,0-4.5-0.9-6.2-2.6c-3.4-3.4-3.4-9,0-12.5l17.7-17.7c3.4-3.4,9-3.4,12.5,0s3.4,9,0,12.5
				L0.4,282.8C-1.3,284.5-3.5,285.3-5.8,285.3z"/>
			<path class="st2" d="M17.9,304.1c-2.3,0-4.5-0.9-6.2-2.6c-3.4-3.4-3.4-9,0-12.5l17.7-17.7c3.4-3.4,9-3.4,12.5,0s3.4,9,0,12.5
				l-17.7,17.7C22.4,303.2,20.2,304.1,17.9,304.1z"/>
		</g>
		<path class="st3" d="M-214,409.7c-4.9,0-9,4-9,8.9v17.5c0,4.9,4,8.8,8.8,8.8H-73c4.9,0,8.8-4,8.8-8.8v-13.8
			C-109.5,415.8-157.5,410.2-214,409.7z"/>
	</g>
</g>
</svg>
