<?xml version="1.0" encoding="utf-8"?>
<!-- Generator: Adobe Illustrator 19.0.0, SVG Export Plug-In . SVG Version: 6.00 Build 0)  -->
<svg version="1.1" id="Layer_1" xmlns="http://www.w3.org/2000/svg" xmlns:xlink="http://www.w3.org/1999/xlink" x="0px" y="0px"
	 viewBox="-223 25 512 512" style="enable-background:new -223 25 512 512;" xml:space="preserve">
<style type="text/css">
	.st0{fill:#EFC75E;}
	.st1{fill:#D07C40;}
	.st2{fill:#E4E7E7;}
</style>
<g>
	<path class="st0" d="M279.7,320.7L92,130.8c-1.2-1.2-14.7-11.2-29.1-11.2c-39.1,0.4-118,0-159.4,0c-19.1,0-25.9,6.4-25.9,26.3
		v158.6c0,12.4,10,27.9,11.2,29.1L78.4,521.5c11.2,11.2,29.1,11.2,40.3,0l161-161C290.9,349.8,290.9,331.8,279.7,320.7z
		 M-36.8,231.3c-14.3,0-25.9-11.6-25.9-25.9c0-14.3,11.6-25.9,25.9-25.9s25.9,11.6,25.9,25.9S-22.4,231.3-36.8,231.3z"/>
	<path class="st1" d="M-36.8,167.6c-20.7,0-37.9,17.1-37.9,37.9s17.1,37.9,37.9,37.9s37.9-17.1,37.9-37.9S-15.6,167.6-36.8,167.6z
		 M-36.8,223.3c-10,0-17.9-8-17.9-17.9s8-17.9,17.9-17.9s17.9,8,17.9,17.9C-18.8,215.3-26.8,223.3-36.8,223.3z"/>
	<path class="st2" d="M-25.2,119.8C-34.8,78.6-71,48-114.1,48c-51,0-92.1,41.9-92.1,93.7s41.1,93.7,91.7,93.7
		c34.3,0,64.2-19.1,79.7-47.8c5.6,0.8,10.8,4,13.6,8.8c-18.7,32.7-53.4,55-93.3,55c-59.4,0-107.6-49-107.6-109.6
		s48.2-109.6,107.6-109.6c52.2,0,95.7,37.5,105.6,87.7C-8.9,119.8-25.2,119.8-25.2,119.8z"/>
	<path class="st1" d="M100.8,311.1c16.3,0,29.9-13.6,29.9-29.9s-13.6-29.9-29.9-29.9s-29.9,13.6-29.9,29.9
		C70.9,297.5,84.4,311.1,100.8,311.1z M100.8,267.2c7.6,0,14,6.4,14,14s-6.4,14-14,14c-7.6,0-14-6.4-14-14
		C86.8,273.2,93.2,267.2,100.8,267.2z M100.8,374.9c-16.3,0-29.9,13.6-29.9,29.9s13.6,29.9,29.9,29.9s29.9-13.6,29.9-29.9
		C130.7,388,117.1,374.9,100.8,374.9z M100.8,418.7c-7.6,0-14-6.4-14-14s6.4-14,14-14c7.6,0,14,6.4,14,14S108.3,418.7,100.8,418.7z
		 M182.1,335H19c-4.4,0-8,3.6-8,8s3.6,8,8,8h163c4.4,0,8-3.6,8-8C190.4,338.6,186.9,335,182.1,335z"/>
</g>
</svg>
