<?xml version="1.0" encoding="utf-8"?>
<!-- Generator: Adobe Illustrator 19.0.0, SVG Export Plug-In . SVG Version: 6.00 Build 0)  -->
<svg version="1.1" id="Layer_1" xmlns="http://www.w3.org/2000/svg" xmlns:xlink="http://www.w3.org/1999/xlink" x="0px" y="0px"
	 viewBox="-223 25 512 512" style="enable-background:new -223 25 512 512;" xml:space="preserve">
<style type="text/css">
	.st0{fill:#E1E0E4;}
	.st1{fill:#D2D1D6;}
	.st2{fill:#878493;}
	.st3{fill:#787485;}
	.st4{fill:#696578;}
	.st5{fill:#38C7C2;}
	.st6{fill:#00B5B8;}
	.st7{fill:#F0F0F1;}
	.st8{fill:#E1E6E9;}
	.st9{fill:#EBF0F3;}
	.st10{fill:#D5D6DB;}
	.st11{fill:#FFFFFF;}
	.st12{fill:#E56353;}
	.st13{fill:#D15241;}
</style>
<g>
	<path class="st0" d="M41,137H17v-16c0-4.4-3.6-8-8-8h-128c-4.4,0-8,3.6-8,8v16h-24c-39.7,0-72,32.3-72,72v256c0,39.7,32.3,72,72,72
		H41c39.7,0,72-32.3,72-72V209C113,169.3,80.7,137,41,137z"/>
	<path class="st1" d="M65,513h-216c-26.5,0-48-21.5-48-48V201c0-26.5,21.5-48,48-48h40c4.4,0,8-3.6,8-8v-32h-16c-4.4,0-8,3.6-8,8v16
		h-24c-39.8,0-72,32.2-72,72v256c0,39.8,32.2,72,72,72H41c26,0,48.8-13.8,61.4-34.5C91.5,509.2,78.7,513,65,513z"/>
	<path class="st2" d="M25,25h-160c-13.2,0-24,10.8-24,24v56c0,13.2,10.8,24,24,24H25c13.2,0,24-10.8,24-24V49C49,35.8,38.2,25,25,25
		z"/>
	<path class="st3" d="M-135,105V49c0-13.2,10.8-24,24-24h-24c-13.2,0-24,10.8-24,24v56c0,13.2,10.8,24,24,24h24
		C-124.2,129-135,118.2-135,105z"/>
	<g>
		<path class="st4" d="M-55,105c-4.4,0-8-3.6-8-8V57c0-4.4,3.6-8,8-8s8,3.6,8,8v40C-47,101.4-50.6,105-55,105z"/>
		<path class="st4" d="M-23,105c-4.4,0-8-3.6-8-8V57c0-4.4,3.6-8,8-8s8,3.6,8,8v40C-15,101.4-18.6,105-23,105z"/>
		<path class="st4" d="M9,105c-4.4,0-8-3.6-8-8V57c0-4.4,3.6-8,8-8s8,3.6,8,8v40C17,101.4,13.4,105,9,105z"/>
		<path class="st4" d="M-87,105c-4.4,0-8-3.6-8-8V57c0-4.4,3.6-8,8-8s8,3.6,8,8v40C-79,101.4-82.6,105-87,105z"/>
		<path class="st4" d="M-119,105c-4.4,0-8-3.6-8-8V57c0-4.4,3.6-8,8-8s8,3.6,8,8v40C-111,101.4-114.6,105-119,105z"/>
	</g>
	<path class="st5" d="M105,217h-320c-4.4,0-8,3.6-8,8v224c0,4.4,3.6,8,8,8h320c4.4,0,8-3.6,8-8V225C113,220.6,109.4,217,105,217z"/>
	<path class="st6" d="M-215,217c-4.4,0-8,3.6-8,8v224c0,4.4,3.6,8,8,8h16V217H-215z"/>
	<path class="st7" d="M1,313h-32v-32c0-4.4-3.6-8-8-8h-32c-4.4,0-8,3.6-8,8v32h-32c-4.4,0-8,3.6-8,8v32c0,4.4,3.6,8,8,8h32v32
		c0,4.4,3.6,8,8,8h32c4.4,0,8-3.6,8-8v-32H1c4.4,0,8-3.6,8-8v-32C9,316.6,5.4,313,1,313z"/>
	<path class="st8" d="M288.8,379.4c-3.5-54.8-47.9-99.3-102.7-102.7c-66.5-4.3-121.3,50.5-117.1,117c3.5,54.8,47.9,99.3,102.7,102.7
		C238.2,500.6,293,445.8,288.8,379.4z"/>
	<path class="st9" d="M281.9,379.8c-3.2-51.4-44.9-93.1-96.3-96.3C123.3,279.6,72,330.9,75.9,393.2c3.2,51.4,44.9,93.1,96.3,96.3
		C234.5,493.5,285.8,442.1,281.9,379.8z"/>
	<path class="st8" d="M107.1,460.7l145.9-146c-2.6-2.7-5.3-5.2-8.2-7.6L99.5,452.5C101.9,455.3,104.4,458.1,107.1,460.7z"/>
	<path class="st10" d="M253,314.7l-145.9,146c1.9,1.8,3.8,3.6,5.8,5.2l145.3-145.3C256.6,318.6,254.8,316.6,253,314.7z"/>
	<path id="SVGCleanerId_0" class="st11" d="M78.2,437.4c-27.5,0-49.8,22.3-49.8,49.8l0,0c0,27.5,22.3,49.8,49.8,49.8h80.5v-99.6
		H78.2z"/>
	<path id="SVGCleanerId_1" class="st12" d="M239.2,437.4h-80.5V537h80.5c27.5,0,49.8-22.3,49.8-49.8l0,0
		C289,459.7,266.7,437.4,239.2,437.4z"/>
	<g>
		<path id="SVGCleanerId_0_1_" class="st11" d="M78.2,437.4c-27.5,0-49.8,22.3-49.8,49.8l0,0c0,27.5,22.3,49.8,49.8,49.8h80.5v-99.6
			H78.2z"/>
	</g>
	<g>
		<path id="SVGCleanerId_1_1_" class="st12" d="M239.2,437.4h-80.5V537h80.5c27.5,0,49.8-22.3,49.8-49.8l0,0
			C289,459.7,266.7,437.4,239.2,437.4z"/>
	</g>
	<path class="st9" d="M154.3,528.1H73.8c-17.9,0-33.4-9.5-42.2-23.6c7,19,25.1,32.5,46.5,32.5h80.5v-8.9H154.3z"/>
	<path class="st13" d="M281.4,461c2,5.4,3.3,11.2,3.3,17.3l0,0c0,27.5-22.3,49.8-49.8,49.8h-76.2v8.9h80.5
		c27.5,0,49.8-22.3,49.8-49.8l0,0C289,477.6,286.1,468.6,281.4,461z"/>
	<path class="st11" d="M73.8,528.1h80.5h4.4v-90.6H78.2c-27.5,0-49.8,22.3-49.8,49.8l0,0c0,6.1,1.2,11.9,3.3,17.3
		C40.4,518.6,56,528.1,73.8,528.1z"/>
	<path class="st12" d="M239.2,437.4h-80.5V528h76.2c27.5,0,49.8-22.3,49.8-49.8l0,0c0-6.1-1.2-11.9-3.3-17.3
		C272.6,446.9,257.1,437.4,239.2,437.4z"/>
</g>
</svg>
