<?xml version="1.0" encoding="iso-8859-1"?>
<!-- Generator: Adobe Illustrator 19.0.0, SVG Export Plug-In . SVG Version: 6.00 Build 0)  -->
<svg version="1.1" id="Layer_1" xmlns="http://www.w3.org/2000/svg" xmlns:xlink="http://www.w3.org/1999/xlink" x="0px" y="0px"
	 viewBox="0 0 503.467 503.467" style="enable-background:new 0 0 503.467 503.467;" xml:space="preserve">
<g transform="translate(1 1)">
	<rect x="106.52" y="481.133" style="fill:#F2EDDA;" width="290.133" height="17.067"/>
	<path style="fill:#AAB1BA;" d="M493.933,105.667c3.413,17.067,5.12,37.547,5.12,59.733s-1.707,42.667-5.12,59.733L413.72,191v-51.2
		L493.933,105.667z M493.933,105.667L413.72,139.8V54.467l34.133-51.2C447.853,3.267,481.133,31.427,493.933,105.667z M413.72,191
		l80.213,34.133c-12.8,74.24-46.08,102.4-46.08,102.4l-34.133-51.2V191z"/>
	<polygon style="fill:#F2EDDA;" points="328.386,361.667 362.52,481.133 140.653,481.133 208.92,242.2 208.92,191 294.253,191 
		294.253,242.2 303.64,276.333 	"/>
	<polygon style="fill:#FFD0A1;" points="106.52,276.333 106.52,327.533 4.12,327.533 4.12,276.333 55.32,276.333 	"/>
	<path style="fill:#AAB1BA;" d="M413.72,139.8V191H294.253H208.92H55.32h-25.6c-14.507,0-25.6-11.093-25.6-25.6
		s11.093-25.6,25.6-25.6H413.72z"/>
</g>
<path style="fill:#51565F;" d="M397.653,503.467c-2.56,0-4.267-1.707-4.267-4.267v-12.8H363.52l0,0H141.653l0,0h-29.867v12.8
	c0,2.56-1.707,4.267-4.267,4.267s-4.267-1.707-4.267-4.267v-17.067c0-2.56,1.707-4.267,4.267-4.267h30.72l33.28-116.053l0,0
	l23.893-85.333l0,0l9.387-33.28v-46.08H59.733v81.067c0,2.56-1.707,4.267-4.267,4.267H8.533v42.667H102.4v-42.667H89.6
	c-2.56,0-4.267-1.707-4.267-4.267s1.707-4.267,4.267-4.267h17.067c2.56,0,4.267,1.707,4.267,4.267v51.2
	c0,2.56-1.707,4.267-4.267,4.267H4.267c-2.56,0-4.267-1.707-4.267-4.267v-51.2c0-2.56,1.707-4.267,4.267-4.267H51.2v-76.8H29.867
	C13.653,197.12,0,183.467,0,167.253s13.653-29.867,29.867-29.867H409.6v-81.92c0-0.853,0-1.707,0.853-2.56l34.133-51.2
	C445.44,0.853,446.293,0,447.147,0c0.853,0,2.56,0,3.413,0.853c2.56,1.707,52.907,45.227,52.907,165.547
	c0,110.08-42.667,155.307-51.2,163.84V448c0,2.56-1.707,4.267-4.267,4.267s-4.267-1.707-4.267-4.267V330.24l-33.28-50.347
	c-0.853-0.853-0.853-1.707-0.853-2.56v-81.067H298.667v46.08L332.8,360.96l0,0l33.28,116.053h30.72c2.56,0,4.267,1.707,4.267,4.267
	v17.067C401.92,501.76,400.213,503.467,397.653,503.467z M147.627,477.867h201.387l-96.427-61.44l-68.267,43.52
	c-1.707,0.853-4.267,0.853-5.973-1.707c-0.853-0.853-0.853-1.707-0.853-2.56c0-1.707,0.853-2.56,1.707-3.413l64.853-41.813
	l-66.56-41.813L147.627,477.867z M180.907,360.96l175.787,111.787l-29.867-103.253l-46.933,29.867
	c-1.707,0.853-4.267,0.853-5.973-1.707c-0.853-1.707-0.853-4.267,1.707-5.973l46.08-29.013l-69.12-45.227l-40.107,26.453
	c-1.707,1.707-4.267,0.853-5.973-0.853c-0.853-0.853-0.853-1.707-0.853-2.56c0-1.707,0.853-2.56,1.707-3.413l37.547-24.747
	l-41.813-28.16L180.907,360.96z M255.146,308.053l67.413,44.373l-19.627-68.267L281.6,298.667c-1.707,1.707-4.267,0.853-5.973-0.853
	c-0.853-0.853-0.853-1.707-0.853-2.56c0-1.707,0.853-2.56,1.707-3.413l23.893-16.213l-8.533-30.72v-0.853V197.12h-76.8v46.933v0.853
	l-8.533,30.72L255.146,308.053L255.146,308.053z M418.986,275.627l30.72,46.08c8.533-9.387,30.72-37.547,40.96-93.013l-71.68-29.867
	L418.986,275.627L418.986,275.627z M418.986,189.44l72.533,30.72c2.56-16.213,4.267-33.28,4.267-53.76s-1.707-37.547-4.267-53.76
	l-72.533,30.72V189.44z M56.32,187.733h354.133v-42.667H30.72c-11.947,0-21.333,9.387-21.333,21.333s9.387,21.333,21.333,21.333
	H56.32z M418.986,57.173v77.653l71.68-29.867c-10.24-55.467-32.427-83.627-40.96-93.013L418.986,57.173z"/>
<g>
</g>
<g>
</g>
<g>
</g>
<g>
</g>
<g>
</g>
<g>
</g>
<g>
</g>
<g>
</g>
<g>
</g>
<g>
</g>
<g>
</g>
<g>
</g>
<g>
</g>
<g>
</g>
<g>
</g>
</svg>
