<?xml version="1.0" encoding="utf-8"?>
<!-- Generator: Adobe Illustrator 19.0.0, SVG Export Plug-In . SVG Version: 6.00 Build 0)  -->
<svg version="1.1" id="Layer_1" xmlns="http://www.w3.org/2000/svg" xmlns:xlink="http://www.w3.org/1999/xlink" x="0px" y="0px"
	 viewBox="-223 25 512 512" style="enable-background:new -223 25 512 512;" xml:space="preserve">
<style type="text/css">
	.st0{fill:#CCD1D9;}
	.st1{fill:#E6E9ED;}
	.st2{fill:#434A54;}
	.st3{fill:#5D9CEC;}
	.st4{fill:#4A89DC;}
	.st5{opacity:0.2;fill:#FFFFFF;enable-background:new    ;}
	.st6{fill:#FF6465;}
	.st7{opacity:0.1;fill:#171D26;enable-background:new    ;}
	.st8{fill:#F2E9DC;}
	.st9{fill:#D2555A;}
	.st10{opacity:0.2;fill:#171D26;enable-background:new    ;}
</style>
<g>
	<g>
		<path class="st0" d="M163.4,25.1h-42.7c-5.9,0-10.7,4.8-10.7,10.7v42.7c0,5.9,4.8,10.7,10.7,10.7h42.7c5.9,0,10.7-4.8,10.7-10.7
			V35.8C174.1,29.9,169.3,25.1,163.4,25.1z"/>
		<path class="st1" d="M205.9,67.8h-128c-5.9,0-10.7,4.8-10.7,10.7v42.6c0,5.9,4.8,10.7,10.7,10.7h128c5.9,0,10.7-4.8,10.7-10.7
			V78.4C216.6,72.5,211.8,67.8,205.9,67.8z"/>
		<path class="st2" d="M174.2,46.3h-64c-5.9,0-10.7-4.8-10.7-10.7s4.8-10.7,10.7-10.7h64c5.9,0,10.7,4.8,10.7,10.7
			C184.9,41.7,180.1,46.3,174.2,46.3z"/>
		<g>
			<path class="st0" d="M109.9,131.8c-5.9,0-10.7-4.8-10.7-10.7v-10.7c0-5.9,4.8-10.7,10.7-10.7s10.7,4.8,10.7,10.7v10.7
				C120.6,127,115.8,131.8,109.9,131.8z"/>
			<path class="st0" d="M141.9,131.8c-5.9,0-10.7-4.8-10.7-10.7v-10.7c0-5.9,4.8-10.7,10.7-10.7s10.7,4.8,10.7,10.7v10.7
				C152.6,127,147.8,131.8,141.9,131.8z"/>
			<path class="st0" d="M173.9,131.8c-5.9,0-10.7-4.8-10.7-10.7v-10.7c0-5.9,4.8-10.7,10.7-10.7s10.7,4.8,10.7,10.7v10.7
				C184.6,127,179.8,131.8,173.9,131.8z"/>
		</g>
		<path class="st3" d="M248.6,227.8v-85.3c0-17.6-14.3-32-32-32H67.3c-17.7,0-32,14.4-32,32v85.3c0,2.8,1.1,5.5,3.1,7.5l13.8,13.8
			l-13.8,13.8c-2,2-3.1,4.7-3.1,7.5V505c0,17.7,14.3,32,32,32h149.3c17.7,0,32-14.3,32-32V270.3c0-2.8-1.1-5.5-3.1-7.5l-13.8-13.8
			l13.8-13.8C247.5,233.3,248.6,230.6,248.6,227.8z"/>
		<g>
			<path class="st4" d="M248.6,323.8h-42.7c-5.9,0-10.7,4.8-10.7,10.7c0,5.9,4.8,10.7,10.7,10.7h42.7V323.8z"/>
			<path class="st4" d="M248.6,387.8h-42.7c-5.9,0-10.7,4.8-10.7,10.7c0,5.9,4.8,10.7,10.7,10.7h42.7V387.8z"/>
			<path class="st4" d="M248.6,451.8h-42.7c-5.9,0-10.7,4.8-10.7,10.7c0,5.9,4.8,10.7,10.7,10.7h42.7V451.8z"/>
			<path class="st4" d="M35.3,473H78c5.9,0,10.7-4.8,10.7-10.7c0-5.9-4.8-10.7-10.7-10.7H35.3V473z"/>
			<path class="st4" d="M35.3,409H78c5.9,0,10.7-4.8,10.7-10.7c0-5.9-4.8-10.7-10.7-10.7H35.3V409z"/>
			<path class="st4" d="M35.3,345H78c5.9,0,10.7-4.8,10.7-10.7c0-5.9-4.8-10.7-10.7-10.7H35.3V345z"/>
		</g>
		<path class="st5" d="M248.6,227.8v-85.3c0-17.6-14.3-32-32-32h-21.3c17.6,0,32,14.4,32,32v85.3c0,2.8-1.1,5.5-3.1,7.5l-13.9,13.8
			l13.8,13.8c2,2,3.1,4.7,3.1,7.5V505c0,17.7-14.4,32-32,32h21.3c17.7,0,32-14.3,32-32V270.3c0-2.8-1.1-5.5-3.1-7.5l-13.7-13.8
			l13.8-13.8C247.5,233.3,248.6,230.6,248.6,227.8z"/>
	</g>
	<g>
		<path class="st6" d="M-163.3,303.3l33.4,218.4c1.3,8.8,8.9,15.3,17.9,15.3h99.8c8.9,0,16.5-6.5,17.9-15.3L39,303.3H-163.3z"/>
		<polygon class="st7" points="-158.6,333.4 34.4,333.4 39,303.3 -163.3,303.3 		"/>
		<path class="st8" d="M42.1,287h-208.5c-9,0-16.2,7.3-16.2,16.2s7.3,16.2,16.2,16.2H42.1c9,0,16.2-7.3,16.2-16.2S51.1,287,42.1,287
			z"/>
		<g>
			<path class="st9" d="M13.8,347.1H-138c-2.5,0-4.6-2-4.6-4.6c0-2.5,2-4.6,4.6-4.6H13.8c2.5,0,4.6,2,4.6,4.6
				C18.3,345.1,16.3,347.1,13.8,347.1z"/>
			<path class="st9" d="M1.9,367.5h-128.1c-2.5,0-4.6-2-4.6-4.6c0-2.5,2-4.6,4.6-4.6H1.9c2.5,0,4.6,2,4.6,4.6
				C6.5,365.4,4.4,367.5,1.9,367.5z"/>
			<path class="st9" d="M-11.1,495.6h-102c-2.5,0-4.6-2-4.6-4.6c0-2.5,2-4.6,4.6-4.6h102c2.5,0,4.6,2,4.6,4.6
				C-6.6,493.6-8.6,495.6-11.1,495.6z"/>
			<path class="st9" d="M-19.1,516h-86.1c-2.5,0-4.6-2-4.6-4.6c0-2.5,2-4.6,4.6-4.6h86.1c2.5,0,4.6,2,4.6,4.6
				C-14.5,514-16.6,516-19.1,516z"/>
		</g>
		<path class="st10" d="M-93.4,521.8l-30.9-202.2h-5.6c-9,0-16.2-7.3-16.2-16.2c0-9,7.3-16.2,16.2-16.2h-36.5
			c-9,0-16.2,7.3-16.2,16.2s7.3,16.2,16.2,16.2h5.6l30.9,202.2c1.3,8.8,8.9,15.3,17.9,15.3h36.5C-84.5,537-92.1,530.5-93.4,521.8z"
			/>
	</g>
</g>
</svg>
