<?xml version="1.0" encoding="utf-8"?>
<!-- Generator: Adobe Illustrator 19.0.0, SVG Export Plug-In . SVG Version: 6.00 Build 0)  -->
<svg version="1.1" id="Layer_1" xmlns="http://www.w3.org/2000/svg" xmlns:xlink="http://www.w3.org/1999/xlink" x="0px" y="0px"
	 viewBox="-223 25 512 512" style="enable-background:new -223 25 512 512;" xml:space="preserve">
<style type="text/css">
	.st0{fill:#8B7E7F;}
	.st1{fill:none;stroke:#000000;stroke-width:15;stroke-linecap:round;stroke-linejoin:round;stroke-miterlimit:10;}
	.st2{fill:#0099CC;}
	.st3{fill:#C2B8B9;}
	.st4{fill:#C8D2D6;}
	.st5{fill:#E7ECED;}
	.st6{fill:#7383BF;}
	.st7{fill:#FBCE9D;}
	.st8{fill:#F7B563;}
	.st9{fill:#424A60;}
	.st10{fill:#FFFFFF;}
</style>
<g>
	<g>
		<polygon class="st0" points="-24.7,409.6 -24.7,523.1 90.7,523.1 90.7,409.5 		"/>
		<line class="st1" x1="251.8" y1="377.3" x2="-185.4" y2="377.3"/>
		<path class="st2" d="M289,109.9c0-13.3-11.3-24.2-25.1-24.2h-461.8c-13.8,0-25.1,10.9-25.1,24.2v268.3l256,24.2l256-24.2V109.9z"
			/>
		<g>
			<path class="st3" d="M-223,378.2v31.4c0,13.3,11.3,24.2,25.1,24.2h461.8c13.8,0,25.1-10.9,25.1-24.2v-31.4H-223L-223,378.2z"/>
			<path class="st3" d="M172.9,532.2h-279.8c-5.2,0-9.4-4.1-9.4-9.1s4.2-9.1,9.4-9.1h279.8c5.2,0,9.4,4.1,9.4,9.1
				S178.1,532.2,172.9,532.2z"/>
		</g>
	</g>
	<g>
		<rect x="-38" y="312.1" class="st4" width="144.1" height="66.1"/>
		<path class="st5" d="M58.1,378.2H-38v-66.1h56.6c21.8,0,39.5,17.7,39.5,39.5V378.2z"/>
		<circle class="st6" cx="19" cy="345.1" r="15"/>
		<path class="st7" d="M9.4,94.1C16.8,90.9,22,83.5,22,74.9c0-11.6-9.4-21-21-21c-8.6,0-16,5.2-19.2,12.6L9.4,94.1z"/>
		<path class="st7" d="M39.5,124.2c7.4-3.3,12.6-10.6,12.6-19.2c0-11.6-9.4-21-21-21c-8.6,0-16,5.2-19.2,12.6L39.5,124.2z"/>
		<path class="st7" d="M69.5,154.2c7.4-3.3,12.6-10.6,12.6-19.2c0-11.6-9.4-21-21-21c-8.6,0-16,5.2-19.2,12.6L69.5,154.2z"/>
		<path class="st7" d="M99.5,184.2c7.4-3.3,12.6-10.6,12.6-19.2c0-11.6-9.4-21-21-21c-8.6,0-16,5.2-19.2,12.6L99.5,184.2z"/>
		<path class="st7" d="M-23,228h-60c-11.6,0-21-9.5-21-21l0,0c0-11.6,9.5-21,21-21h60c11.6,0,21,9.5,21,21l0,0
			C-2,218.6-11.4,228-23,228z"/>
		<g>
			<path class="st8" d="M100.9,219.4l-66.8,66.8c-5.4,5.4-14.1,5.4-19.5,0l-58.1-58.1h-39.6c-3.5,1.7-12.9-4.4-9.3-1.3l64.9,64.7
				c0.4,0.4,1,0.8,1.4,1.2v19.5H94.1v-27.1c10.9-8.2,18-21.2,18-36C112.1,237.7,107.9,227.3,100.9,219.4z"/>
		</g>
		<path class="st9" d="M-37.5,47.2l-93.4,93.4l45.6,45.6c0.8-0.1,1.5-0.2,2.2-0.2h60c11.6,0,21,9.5,21,21c0,11.6-9.5,21-21,21h-20.5
			l38.3,38.2l93.4-93.4L-37.5,47.2z"/>
		<g>
			<path class="st5" d="M-37.5,47.2l-13.3-13.3c-5.4-5.4-14.1-5.4-19.5,0l-73.9,73.9c-5.4,5.4-5.4,14.1,0,19.5l13.3,13.3L-37.5,47.2
				z"/>
			<path class="st5" d="M108.1,192.8l-20-20l-93.4,93.4l20,20c5.4,5.4,14.1,5.4,19.5,0l73.9-73.9
				C113.4,206.9,113.4,198.1,108.1,192.8z"/>
		</g>
		<circle class="st10" cx="55.1" cy="231" r="12"/>
		<path class="st9" d="M-98.1,95.9c-1.5,0-3.1-0.6-4.2-1.8c-2.3-2.3-2.3-6.1,0-8.5l12-12c2.3-2.3,6.1-2.3,8.5,0
			c2.3,2.3,2.3,6.1,0,8.5l-12,12C-95,95.3-96.5,95.9-98.1,95.9z"/>
	</g>
</g>
</svg>
