<?xml version="1.0" encoding="utf-8"?>
<!-- Generator: Adobe Illustrator 19.0.0, SVG Export Plug-In . SVG Version: 6.00 Build 0)  -->
<svg version="1.1" id="Layer_1" xmlns="http://www.w3.org/2000/svg" xmlns:xlink="http://www.w3.org/1999/xlink" x="0px" y="0px"
	 viewBox="-223 25 512 512" style="enable-background:new -223 25 512 512;" xml:space="preserve">
<style type="text/css">
	.st0{fill:#FF4B4B;}
	.st1{fill:none;stroke:#464646;stroke-width:16;stroke-linecap:round;stroke-linejoin:round;stroke-miterlimit:10;}
	.st2{fill:#C83741;}
	.st3{fill:#FF6969;}
	.st4{opacity:0.5;}
	.st5{fill:#FFDC78;}
	.st6{fill:#FFB450;}
	.st7{opacity:0.5;fill:#FFB450;enable-background:new    ;}
	.st8{opacity:0.5;fill:#FFDC78;enable-background:new    ;}
</style>
<g>
	<path class="st0" d="M280.2,42.7H-117v379.6h397.2c4.9,0,8.8-4,8.8-8.8v-362C289,46.6,285,42.7,280.2,42.7z"/>
	<ellipse class="st1" cx="-117.1" cy="91.2" rx="44.1" ry="13.2"/>
	<path class="st0" d="M-223,91.2v379.6c0,26.8,47.4,48.6,105.9,48.6s105.9-21.7,105.9-48.6V91.2H-223z"/>
	<path class="st2" d="M-134.7,91.2H-223v379.6c0,24.1,38.2,44,88.3,47.8V91.2z"/>
	<ellipse class="st3" cx="-117.1" cy="91.2" rx="105.9" ry="48.6"/>
	<ellipse class="st0" cx="-117.1" cy="91.2" rx="53" ry="22.1"/>
	<path class="st2" d="M-11.1,91.2v331H6.5v-331c0-19.6-14.4-36.6-38-48.6H-117C-58.6,42.7-11.1,64.4-11.1,91.2z"/>
	<g class="st4">
		<path class="st5" d="M280.2,42.7h-35.3v379.6h35.3c4.9,0,8.8-4,8.8-8.8v-362C289,46.6,285,42.7,280.2,42.7z"/>
		<path class="st5" d="M147.8,387.1c-2.2,0-4.4-0.8-6.1-2.5c-7.8-7.5-11.6-15.9-11.6-25.7s3.8-18.3,11.5-25.7
			c3.5-3.4,9.1-3.3,12.5,0.3c3.4,3.5,3.3,9.1-0.3,12.5c-4.2,4.1-6.1,8.1-6.1,13s1.9,8.9,6.1,13c3.5,3.4,3.6,9,0.3,12.5
			C152.4,386.2,150.1,387.1,147.8,387.1z"/>
		<path class="st5" d="M174.3,330.6c-2.9,0-5.7-1.4-7.4-4c-2.7-4.1-1.6-9.5,2.5-12.2c9.9-6.5,13.7-11.8,13.7-18.8
			c0-6.2-2.9-11-10.2-16.4c-3.9-2.9-4.7-8.4-1.8-12.4c2.9-3.9,8.4-4.7,12.4-1.8c7.4,5.5,17.3,14.7,17.3,30.5
			c0,17.1-11.6,26.9-21.6,33.6C177.6,330.2,175.9,330.6,174.3,330.6z"/>
		<path class="st5" d="M151,263.4c-1.9,0-3.9-0.6-5.5-1.9c-10.4-8.3-15.4-17.8-15.4-29.1c0-11.2,5-20.6,15.2-28.8
			c3.8-3.1,9.4-2.5,12.4,1.3c3.1,3.8,2.5,9.3-1.3,12.4c-6,4.9-8.6,9.4-8.6,15.1c0,5.8,2.6,10.4,8.8,15.3c3.8,3,4.4,8.6,1.4,12.4
			C156.2,262.2,153.6,263.4,151,263.4z"/>
		<path class="st5" d="M177.9,201.6c-2.7,0-5.4-1.2-7.1-3.6c-2.9-3.9-2.1-9.4,1.8-12.3c7.4-5.5,10.4-10.2,10.4-16.5
			c0-5.3-2.1-9.5-7.2-13.9c-3.7-3.2-4-8.8-0.8-12.5s8.8-4,12.5-0.8c8.8,7.8,13.1,16.7,13.1,27.1c0,15.9-10,25.1-17.6,30.7
			C181.6,201,179.8,201.6,177.9,201.6z"/>
		<path class="st5" d="M154.9,139.8c-1.7,0-3.5-0.5-5-1.6c-8.5-5.9-19.8-15.6-19.8-32.3c0-17,11.6-26.9,21.6-33.5
			c4.1-2.7,9.5-1.6,12.2,2.5c2.7,4.1,1.6,9.5-2.5,12.2c-9.9,6.5-13.7,11.8-13.7,18.8c0,6.7,3.4,11.7,12.2,17.8c4,2.8,5,8.3,2.2,12.3
			C160.5,138.4,157.7,139.8,154.9,139.8z"/>
		<path class="st5" d="M41.8,387.1c-2.2,0-4.4-0.8-6.1-2.5c-7.8-7.5-11.6-15.9-11.6-25.7s3.8-18.3,11.5-25.7
			c3.5-3.4,9.1-3.3,12.5,0.3c3.4,3.5,3.3,9.1-0.3,12.5c-4.2,4.1-6.1,8.1-6.1,13s1.9,8.9,6.1,13c3.5,3.4,3.6,9,0.3,12.5
			C46.5,386.2,44.2,387.1,41.8,387.1z"/>
		<path class="st5" d="M68.3,330.6c-2.9,0-5.7-1.4-7.4-4c-2.7-4.1-1.6-9.5,2.5-12.2c9.9-6.5,13.7-11.8,13.7-18.8
			c0-6.2-2.9-11-10.2-16.4c-3.9-2.9-4.7-8.4-1.8-12.4c2.9-3.9,8.4-4.7,12.4-1.8c7.4,5.5,17.3,14.7,17.3,30.5
			c0,17.1-11.6,26.9-21.6,33.6C71.7,330.2,70,330.6,68.3,330.6z"/>
		<path class="st5" d="M45.1,263.4c-1.9,0-3.9-0.6-5.5-1.9c-10.4-8.3-15.4-17.8-15.4-29.1c0-11.2,5-20.6,15.2-28.8
			c3.8-3.1,9.3-2.5,12.4,1.3s2.5,9.3-1.3,12.4c-6,4.9-8.6,9.4-8.6,15.1c0,5.8,2.6,10.4,8.8,15.3c3.8,3,4.4,8.6,1.4,12.4
			C50.3,262.2,47.7,263.4,45.1,263.4z"/>
		<path class="st5" d="M72,201.6c-2.7,0-5.4-1.2-7.1-3.6c-2.9-3.9-2.1-9.4,1.8-12.3c7.4-5.5,10.4-10.2,10.4-16.5
			c0-5.3-2.1-9.5-7.2-13.9c-3.7-3.2-4-8.8-0.8-12.5s8.8-4,12.5-0.8c8.8,7.8,13.1,16.7,13.1,27.1c0,15.9-10,25.1-17.6,30.7
			C75.7,201,73.8,201.6,72,201.6z"/>
		<path class="st5" d="M49,139.8c-1.7,0-3.5-0.5-5-1.6c-8.5-5.9-19.8-15.6-19.8-32.3c0-17,11.6-26.9,21.6-33.5
			c4.1-2.7,9.5-1.6,12.2,2.5c2.7,4.1,1.6,9.5-2.5,12.2c-9.9,6.5-13.7,11.8-13.7,18.8c0,6.7,3.4,11.7,12.2,17.8c4,2.8,5,8.3,2.2,12.3
			C54.5,138.4,51.8,139.8,49,139.8z"/>
		<path class="st5" d="M-93.9,475.4c-2.2,0-4.4-0.8-6.1-2.4c-7.8-7.4-11.6-15.9-11.6-25.7c0-9.8,3.8-18.3,11.5-25.7
			c3.5-3.4,9.1-3.3,12.5,0.3c3.4,3.5,3.3,9.1-0.3,12.5c-4.2,4.1-6.1,8.1-6.1,13s1.9,8.9,6.1,13c3.5,3.4,3.6,9,0.3,12.5
			C-89.2,474.4-91.6,475.4-93.9,475.4z"/>
		<path class="st5" d="M-67.4,418.9c-2.9,0-5.7-1.4-7.4-4c-2.7-4.1-1.6-9.5,2.5-12.2c9.9-6.5,13.7-11.8,13.7-18.8
			c0-6.2-2.9-11-10.2-16.4c-3.9-2.9-4.7-8.4-1.8-12.4c2.9-3.9,8.4-4.7,12.4-1.8c7.4,5.5,17.3,14.7,17.3,30.5
			c0,17.1-11.6,26.9-21.6,33.6C-64,418.4-65.7,418.9-67.4,418.9z"/>
		<path class="st5" d="M-90.6,351.6c-1.9,0-3.9-0.6-5.5-1.9c-10.4-8.3-15.4-17.8-15.4-29.1c0-11.2,5-20.6,15.2-28.8
			c3.8-3.1,9.3-2.5,12.4,1.3s2.5,9.3-1.3,12.4c-6,4.9-8.6,9.4-8.6,15.1c0,5.8,2.6,10.4,8.8,15.3c3.8,3,4.4,8.6,1.4,12.4
			C-85.4,350.5-88,351.6-90.6,351.6z"/>
		<path class="st5" d="M-63.7,289.8c-2.7,0-5.4-1.2-7.1-3.6c-2.9-3.9-2.1-9.4,1.9-12.3c7.4-5.4,10.4-10.2,10.4-16.5
			c0-5.3-2.1-9.5-7.2-13.9c-3.7-3.2-4-8.8-0.8-12.5c3.2-3.7,8.8-4,12.5-0.8c8.8,7.8,13.1,16.7,13.1,27.1c0,15.9-10,25.1-17.6,30.7
			C-60.1,289.3-61.9,289.8-63.7,289.8z"/>
		<path class="st5" d="M-86.7,228c-1.7,0-3.5-0.5-5-1.6c-8.5-5.9-19.8-15.6-19.8-32.3c0-17,11.6-26.9,21.6-33.5
			c4.1-2.7,9.5-1.6,12.2,2.5s1.6,9.5-2.5,12.2c-9.9,6.5-13.7,11.8-13.7,18.8c0,6.7,3.4,11.7,12.2,17.8c4,2.8,5,8.3,2.2,12.3
			C-81.2,226.7-83.9,228-86.7,228z"/>
	</g>
	<g class="st4">
		<path class="st6" d="M-193.4,475.4c-2.7,0-5.3-1.2-7-3.5c-5.5-7.3-8.2-15.4-8.2-24.7s2.7-17.4,8.2-24.7c3-3.9,8.5-4.6,12.4-1.7
			c3.9,3,4.6,8.5,1.7,12.4c-3.2,4.2-4.6,8.5-4.6,14s1.4,9.8,4.6,14c2.9,3.9,2.2,9.4-1.7,12.4C-189.6,474.8-191.5,475.4-193.4,475.4z
			"/>
		<path class="st6" d="M-174.1,418.9c-2.4,0-4.8-1-6.5-2.9c-3.3-3.6-3-9.2,0.6-12.5c6.2-5.6,10-10.8,10-19.7
			c0-6.8-2.2-11.8-7.5-17.3c-3.4-3.5-3.3-9.1,0.2-12.5s9.1-3.3,12.5,0.2c5.4,5.5,12.5,14.6,12.5,29.6c0,16.3-8.4,26.1-15.8,32.7
			C-169.8,418.1-172,418.9-174.1,418.9z"/>
		<path class="st6" d="M-191,351.6c-2.4,0-4.8-1-6.5-2.9c-7.5-8.2-11.1-17.4-11.1-28.1c0-10.6,3.6-19.7,10.9-27.9
			c3.3-3.6,8.8-3.9,12.5-0.6c3.6,3.3,3.9,8.8,0.6,12.5c-4.5,5-6.4,9.8-6.4,16.1c0,6.4,2,11.2,6.5,16.2c3.3,3.6,3,9.2-0.6,12.5
			C-186.7,350.9-188.8,351.6-191,351.6z"/>
		<path class="st6" d="M-171.4,289.8c-2.2,0-4.5-0.8-6.2-2.5c-3.5-3.4-3.5-9-0.1-12.5c5.4-5.5,7.6-10.5,7.6-17.4
			c0-5.8-1.7-10.4-5.4-14.9c-3.1-3.8-2.6-9.3,1.2-12.4c3.8-3.1,9.3-2.6,12.4,1.2c6.3,7.7,9.4,16.2,9.4,26.1
			c0,15.1-7.3,24.3-12.7,29.8C-166.8,288.9-169.1,289.8-171.4,289.8z"/>
		<path class="st6" d="M-188.1,228c-2.2,0-4.4-0.8-6.1-2.4c-6.2-5.9-14.4-15.5-14.4-31.5c0-16.3,8.4-26,15.8-32.7
			c3.6-3.3,9.2-3,12.5,0.6s3,9.2-0.6,12.5c-6.2,5.6-10,10.8-10,19.6c0,8.5,3.6,13.6,8.9,18.6c3.5,3.4,3.7,8.9,0.3,12.5
			C-183.5,227.1-185.8,228-188.1,228z"/>
	</g>
	<g class="st4">
		<path class="st5" d="M178.7,66.8c1.7,1.6,3.8,2.3,6,2.3c2.4,0,4.7-1,6.5-2.8c6.3-6.8,9.5-14.8,9.5-23.6H183c0,4.4-1.5,8-4.9,11.7
			C174.9,57.9,175.1,63.5,178.7,66.8z"/>
		<path class="st5" d="M72.8,66.8c1.7,1.6,3.8,2.3,6,2.3c2.4,0,4.7-1,6.5-2.8c6.3-6.8,9.5-14.8,9.5-23.6H77.1c0,4.4-1.5,8-4.9,11.7
			C69,57.9,69.2,63.5,72.8,66.8z"/>
		<path class="st5" d="M73.2,388.7c-4.1-2.7-9.6-1.6-12.2,2.5c-2.7,4.1-1.6,9.5,2.5,12.2c9.9,6.5,13.7,11.8,13.7,18.8h17.7
			C94.8,405.2,83.2,395.3,73.2,388.7z"/>
		<path class="st5" d="M179.1,388.7c-4.1-2.7-9.5-1.6-12.2,2.5s-1.6,9.5,2.5,12.2c9.9,6.5,13.7,11.8,13.7,18.8h17.7
			C200.7,405.2,189.2,395.3,179.1,388.7z"/>
		<path class="st5" d="M-58.6,131.7c-0.2,4.1-1.6,7.5-4.8,10.9c-3.3,3.6-3.1,9.2,0.5,12.5c1.7,1.6,3.8,2.3,6,2.3
			c2.4,0,4.7-1,6.5-2.8c6.3-6.8,9.5-14.8,9.5-23.6c0-2-0.8-3.7-1.8-5.1C-47.6,128-52.9,130-58.6,131.7z"/>
	</g>
	<path class="st7" d="M-170.2,133.2c-0.3,3.9-1.5,7.3-3.6,10.5c-2.7,4-1.7,9.5,2.4,12.3c1.5,1,3.2,1.5,4.9,1.5
		c2.8,0,5.6-1.4,7.3-3.9c3.4-5.1,5.5-10.6,6.4-16.6C-158.9,135.9-164.7,134.6-170.2,133.2z"/>
	<path class="st8" d="M-62.5,476.9c-4.1-2.7-9.5-1.6-12.2,2.5s-1.6,9.5,2.5,12.2c9.9,6.5,13.7,11.8,13.7,18.8c0,0.3,0.1,0.5,0.1,0.7
		c6.2-1.9,11.9-4.1,17-6.5C-43.7,491.2-53.7,482.8-62.5,476.9z"/>
	<path class="st7" d="M-168.1,477.8c-3.6-3.3-9.2-3-12.5,0.6s-3,9.2,0.6,12.5c6.2,5.6,10,10.8,10,19.7c0,0.9,0.3,1.6,0.5,2.4
		c4.8,1.2,9.8,2.3,15,3.2c1.3-1.5,2.2-3.5,2.2-5.6C-152.4,494.2-160.8,484.4-168.1,477.8z"/>
</g>
</svg>
